<svg width="32" height="32" viewBox="0 0 32 32" fill="none" xmlns="http://www.w3.org/2000/svg">
<rect x="0.5" y="0.5" width="31" height="31" rx="15.5" stroke="#EBEBE6"/>
<path d="M15.6667 18H12.6667C11.9594 18 11.2811 18.281 10.781 18.781C10.281 19.2811 10 19.9594 10 20.6667V22" stroke="#000A07" stroke-linecap="round" stroke-linejoin="round"/>
<path d="M22.252 19.084C22.5176 18.8184 22.6668 18.4582 22.6668 18.0827C22.6668 17.7071 22.5176 17.3469 22.252 17.0813C21.9864 16.8158 21.6262 16.6666 21.2507 16.6666C20.8751 16.6666 20.5149 16.8158 20.2493 17.0813L17.576 19.756C17.4175 19.9144 17.3015 20.1102 17.2387 20.3253L16.6807 22.2387C16.6639 22.296 16.6629 22.3568 16.6778 22.4147C16.6926 22.4726 16.7227 22.5254 16.765 22.5677C16.8072 22.61 16.86 22.6401 16.9179 22.6549C16.9758 22.6697 17.0366 22.6687 17.094 22.652L19.0073 22.094C19.2224 22.0312 19.4182 21.9152 19.5767 21.7567L22.252 19.084Z" stroke="#000A07" stroke-linecap="round" stroke-linejoin="round"/>
<path d="M14.6667 15.3333C16.1394 15.3333 17.3333 14.1394 17.3333 12.6667C17.3333 11.1939 16.1394 10 14.6667 10C13.1939 10 12 11.1939 12 12.6667C12 14.1394 13.1939 15.3333 14.6667 15.3333Z" stroke="#000A07" stroke-linecap="round" stroke-linejoin="round"/>
</svg>
