<svg width="24" height="24" viewBox="0 0 24 24" fill="none" xmlns="http://www.w3.org/2000/svg">
<g clip-path="url(#clip0_16_4531)">
<path d="M12 24C18.6274 24 24 18.6274 24 12C24 5.37258 18.6274 0 12 0C5.37258 0 0 5.37258 0 12C0 18.6274 5.37258 24 12 24Z" fill="#DD9402"/>
<path fill-rule="evenodd" clip-rule="evenodd" d="M18.7897 7.21029C19.0701 7.49068 19.0701 7.94526 18.7897 8.22563L10.4136 16.6013C10.1333 16.8817 9.67871 16.8817 9.39834 16.6013L5.2103 12.4137C4.92992 12.1333 4.9299 11.6787 5.21026 11.3983C5.49062 11.118 5.9452 11.1179 6.22559 11.3983L9.90597 15.0783L17.7744 7.21027C18.0548 6.9299 18.5094 6.92991 18.7897 7.21029Z" fill="white" stroke="white"/>
</g>
<defs>
<clipPath id="clip0_16_4531">
<rect width="24" height="24" fill="white"/>
</clipPath>
</defs>
</svg>
