<svg width="132" height="48" viewBox="0 0 132 48" fill="none" xmlns="http://www.w3.org/2000/svg">
<g clip-path="url(#clip0_12_1215)">
<path d="M37.3396 22.4344C37.1853 26.1345 34.2151 29.004 30.512 29.004C26.616 29.004 23.723 25.908 23.723 22.1701C23.723 18.3945 26.8474 15.2985 30.7048 15.2985C32.4407 15.2985 34.1379 16.0158 35.5652 17.3373L34.4465 18.6965C33.3664 17.7526 32.0164 17.1485 30.7048 17.1485C27.8889 17.1485 25.6131 19.4139 25.6131 22.1701C25.6131 25.0019 27.7732 27.154 30.5505 27.154C33.0579 27.154 34.9865 25.3794 35.3723 23.0763H29.7019V21.4528H37.3396V22.4344Z" fill="#000A07"/>
<path d="M43.82 21.5283H42.7785C41.6213 21.5283 40.6955 22.4345 40.6955 23.5671V28.8908H38.8439V19.7915H40.3483V20.5466C40.8498 20.0558 41.6598 19.7915 42.547 19.7915H44.5529L43.82 21.5283Z" fill="#000A07"/>
<path d="M53.9649 28.8908H52.3834V27.7581C51.149 28.9285 49.2203 29.4949 47.2916 28.6642C45.8644 28.0601 44.7843 26.7387 44.4757 25.2284C43.9357 22.2834 46.2501 19.6782 49.1818 19.6782C50.4161 19.6782 51.5348 20.1691 52.3448 20.9619V19.8292H53.9264L53.9649 28.8908ZM52.0362 25.0019C52.4605 23.1518 51.0333 21.4905 49.1818 21.4905C47.5617 21.4905 46.2501 22.7742 46.2501 24.36C46.2501 26.1346 47.8317 27.4938 49.6832 27.1917C50.8404 26.9652 51.8048 26.0968 52.0362 25.0019Z" fill="#000A07"/>
<path d="M57.7066 19.3006V19.7915H60.6768V21.3773H57.7066V28.853H55.855V19.3384C55.855 17.3373 57.3208 16.1669 59.1724 16.1669H61.4097L60.6768 17.8659H59.1724C58.3238 17.8659 57.7066 18.5078 57.7066 19.3006Z" fill="#000A07"/>
<path d="M70.4746 28.8908H68.893V27.7581C67.6587 28.9285 65.73 29.4949 63.8013 28.6642C62.374 28.0601 61.294 26.7387 60.9854 25.2284C60.4453 22.2834 62.7598 19.6782 65.6914 19.6782C66.9258 19.6782 68.0444 20.1691 68.8545 20.9619V19.8292H70.436L70.4746 28.8908ZM68.5844 25.0019C69.0087 23.1518 67.5815 21.4905 65.73 21.4905C64.1099 21.4905 62.7983 22.7742 62.7983 24.36C62.7983 26.1346 64.3799 27.4938 66.2314 27.1917C67.3886 26.9652 68.3144 26.0968 68.5844 25.0019Z" fill="#000A07"/>
<path d="M80.4266 23.4917V28.8908H78.5751V23.4917C78.5751 22.359 77.6107 21.4528 76.4921 21.4528C75.3349 21.4528 74.4091 22.359 74.4091 23.4917V28.8908H72.519V19.7915H74.0619V20.5844C74.7177 20.0181 75.6049 19.6405 76.5692 19.6405C78.6908 19.6405 80.4266 21.3773 80.4266 23.4917Z" fill="#000A07"/>
<path d="M91.3431 28.8908H89.7615V27.7581C88.5272 28.9285 86.5985 29.4949 84.6698 28.6642C83.2425 28.0601 82.1625 26.7387 81.8539 25.2284C81.3138 22.2834 83.6283 19.6782 86.5599 19.6782C87.7943 19.6782 88.9129 20.1691 89.723 20.9619V19.8292H91.3045L91.3431 28.8908ZM89.4144 25.0019C89.8387 23.1518 88.4114 21.4905 86.5599 21.4905C84.9398 21.4905 83.6283 22.7742 83.6283 24.36C83.6283 26.1346 85.2098 27.4938 87.0614 27.1917C88.2186 26.9652 89.1829 26.0968 89.4144 25.0019Z" fill="#000A07"/>
<path d="M104.034 28.8908H97.0134V15.374H98.865V27.0407H103.995V28.8908H104.034Z" fill="url(#paint0_linear_12_1215)"/>
<path d="M113.986 28.8908H112.404V27.7581C111.594 28.551 110.437 29.0418 109.203 29.0418C106.541 29.0418 104.381 26.9275 104.381 24.3223C104.381 21.7549 106.541 19.6405 109.203 19.6405C110.437 19.6405 111.594 20.1313 112.404 20.9242V19.7915H114.025V28.8908H113.986ZM112.134 24.2845C112.134 22.6988 110.823 21.4151 109.164 21.4151C107.544 21.4151 106.233 22.6988 106.233 24.2845C106.233 25.9081 107.544 27.1918 109.164 27.1918C110.823 27.1918 112.134 25.9081 112.134 24.2845Z" fill="url(#paint1_linear_12_1215)"/>
<path d="M125.172 24.3223C125.172 26.9275 123.012 29.0419 120.351 29.0419C119.116 29.0419 117.959 28.5133 117.11 27.7582V28.8908H115.529V16.0914H117.38V20.6977C118.152 20.0181 119.193 19.6028 120.351 19.6028C123.012 19.6028 125.172 21.7171 125.172 24.3223ZM123.244 24.3223C123.244 22.7366 121.932 21.4528 120.312 21.4528C118.692 21.4528 117.38 22.7366 117.38 24.3223C117.38 25.9081 118.692 27.1918 120.312 27.1918C121.932 27.1918 123.244 25.9081 123.244 24.3223Z" fill="url(#paint2_linear_12_1215)"/>
<path d="M131.537 20.3957L130.727 21.7171C130.341 21.4906 129.647 21.113 128.914 21.113C128.22 21.113 127.564 21.4528 127.564 22.0192C127.564 22.6233 128.297 22.8876 129.223 23.1896C130.727 23.7182 132.039 24.6999 132.039 26.1724C132.039 27.6826 130.727 28.9664 128.798 28.9664C127.641 28.9664 126.484 28.5133 125.712 28.0224L126.445 26.5122C126.985 26.8142 127.988 27.1918 128.76 27.1918C129.686 27.1918 130.11 26.6255 130.11 26.0969C130.11 25.4928 129.531 25.1152 128.258 24.6244C127.333 24.2468 125.828 23.6427 125.828 22.0192C125.828 20.5089 127.14 19.4895 128.914 19.4895C129.917 19.6028 130.766 19.9426 131.537 20.3957Z" fill="url(#paint3_linear_12_1215)"/>
<path d="M19.8656 20.3578C19.827 20.018 19.7884 19.6027 19.6341 19.1496C19.5184 18.6965 19.3255 18.2057 19.0941 17.6771C18.8241 17.1863 18.4769 16.6199 18.0526 16.1291C17.8983 15.9403 17.7054 15.7138 17.474 15.525C17.7826 14.3545 17.0883 13.3351 17.0883 13.3351C15.931 13.2596 15.1981 13.6749 14.9281 13.9015C14.8895 13.9015 14.851 13.8637 14.7738 13.826C14.5809 13.7504 14.3881 13.6749 14.1566 13.5994C13.9252 13.5239 13.7323 13.4861 13.5009 13.4106C13.2694 13.3729 13.0766 13.3351 12.8451 13.2974C12.8065 13.2974 12.768 13.2974 12.7294 13.2974C12.2279 11.7116 10.8007 11.032 10.8007 11.032C9.1806 12.0514 8.872 13.4484 8.872 13.4484C8.872 13.4484 8.872 13.4861 8.872 13.5239C8.79486 13.5617 8.67913 13.5617 8.60199 13.5994C8.48626 13.6372 8.37054 13.6749 8.21625 13.7127C8.10052 13.7504 7.9848 13.7882 7.83051 13.8637C7.59906 13.977 7.32905 14.0902 7.0976 14.2035C6.86616 14.3168 6.63472 14.4678 6.40327 14.6188C6.3647 14.6188 6.3647 14.5811 6.3647 14.5811C4.12741 13.7504 2.12157 14.7699 2.12157 14.7699C1.9287 17.1485 3.00877 18.621 3.24021 18.8853C3.20164 19.0363 3.12449 19.1874 3.08591 19.3384C2.93162 19.867 2.77732 20.3956 2.70018 20.9619C2.70018 21.0374 2.70018 21.1129 2.70018 21.1884C0.617183 22.2079 0 24.2467 0 24.2467C1.73583 26.21 3.74167 26.3233 3.74167 26.3233C4.01169 26.7764 4.28171 27.1917 4.62887 27.607C4.78317 27.7581 4.89889 27.9468 5.05318 28.0979C4.436 29.8724 5.13033 31.3449 5.13033 31.3449C7.05903 31.4204 8.33197 30.5143 8.60199 30.3255C8.79486 30.401 8.98773 30.4388 9.1806 30.5143C9.7592 30.6653 10.3764 30.7408 10.9936 30.7786C11.1479 30.7786 11.3022 30.7786 11.4565 30.7786H11.5722H11.6108H11.6879H11.765C12.6908 32.0623 14.2724 32.2133 14.2724 32.2133C15.391 31.0429 15.4681 29.8724 15.4681 29.6081C15.4681 29.5704 15.4681 29.5704 15.4681 29.5704V29.5326C15.6996 29.3816 15.931 29.1928 16.1625 29.004C16.6254 28.5887 17.0111 28.1356 17.3583 27.6448C17.3968 27.607 17.4354 27.5693 17.4354 27.4938C18.7084 27.5693 19.6341 26.7009 19.6341 26.7009C19.4027 25.3794 18.6698 24.7375 18.5155 24.6243C18.5155 24.6243 18.5155 24.6243 18.4769 24.6243C18.4769 24.5488 18.4769 24.4733 18.4769 24.3977C18.4769 24.2467 18.4769 24.1334 18.4769 23.9824V23.8692V23.8314V23.7936C18.4769 23.7559 18.4769 23.7559 18.4769 23.7559V23.6804V23.5671C18.4769 23.5293 18.4769 23.4916 18.4769 23.4538C18.4769 23.4161 18.4769 23.3783 18.4769 23.3406V23.2273V23.114C18.4383 22.963 18.4383 22.812 18.3998 22.6987C18.284 22.1324 18.0526 21.6038 17.744 21.1129C17.4354 20.6221 17.0883 20.2068 16.6639 19.8292C16.2396 19.4517 15.7767 19.1874 15.2753 18.9608C14.7738 18.7343 14.2724 18.621 13.7709 18.5455C13.5009 18.5077 13.2694 18.5077 12.9994 18.5077H12.9223H12.8837H12.8451H12.8065H12.7294C12.6908 18.5077 12.6522 18.5077 12.6137 18.5077C12.498 18.5077 12.3437 18.5455 12.2279 18.5455C11.7265 18.621 11.225 18.8098 10.8007 19.0741C10.3764 19.3384 9.99065 19.6404 9.72063 19.9802C9.41204 20.3201 9.1806 20.7354 9.0263 21.1129C8.872 21.5283 8.79486 21.9436 8.75628 22.3211C8.75628 22.4344 8.75628 22.5099 8.75628 22.6232C8.75628 22.6609 8.75628 22.6609 8.75628 22.6987V22.7742C8.75628 22.812 8.75628 22.8875 8.75628 22.9252C8.79486 23.114 8.83343 23.3406 8.872 23.5293C8.98773 23.9069 9.1806 24.2467 9.37346 24.5488C9.60491 24.8508 9.87493 25.0774 10.1449 25.2661C10.415 25.4549 10.7236 25.6059 11.0321 25.6815C11.3407 25.757 11.6108 25.7947 11.9193 25.7947C11.9579 25.7947 11.9965 25.7947 12.0351 25.7947H12.0736H12.1122C12.1508 25.7947 12.1894 25.7947 12.1894 25.7947C12.1894 25.7947 12.1894 25.7947 12.2279 25.7947H12.2665H12.3051C12.3437 25.7947 12.3822 25.7947 12.4208 25.7947C12.4594 25.7947 12.498 25.7947 12.5365 25.757C12.6137 25.757 12.6522 25.7192 12.7294 25.7192C12.8451 25.6815 12.9608 25.6437 13.0766 25.5682C13.1923 25.5304 13.2694 25.4549 13.3852 25.3794C13.4237 25.3794 13.4237 25.3416 13.4623 25.3039C13.578 25.2284 13.578 25.0774 13.5009 25.0018C13.4237 24.9263 13.308 24.8886 13.2309 24.9641C13.1923 24.9641 13.1923 25.0018 13.1537 25.0018C13.0766 25.0396 12.9994 25.0774 12.8837 25.1151C12.8065 25.1529 12.6908 25.1529 12.6137 25.1906C12.5751 25.1906 12.498 25.1906 12.4594 25.1906C12.4208 25.1906 12.4208 25.1906 12.3822 25.1906C12.3437 25.1906 12.3437 25.1906 12.3051 25.1906C12.2665 25.1906 12.2665 25.1906 12.2279 25.1906C12.1894 25.1906 12.1508 25.1906 12.1508 25.1906H12.1122H12.0736C12.0351 25.1906 12.0351 25.1906 11.9965 25.1906C11.765 25.1529 11.5722 25.1151 11.3407 25.0018C11.1093 24.9263 10.9164 24.7753 10.7236 24.6243C10.5307 24.4733 10.3764 24.2845 10.2607 24.0579C10.1449 23.8314 10.0292 23.6049 9.99065 23.3406C9.95207 23.2273 9.95207 23.0763 9.95207 22.963C9.95207 22.9252 9.95207 22.8875 9.95207 22.8497V22.812V22.7742C9.95207 22.6987 9.95207 22.6232 9.99065 22.5477C10.1064 21.9813 10.3764 21.4527 10.8393 21.0374C10.955 20.9242 11.0707 20.8486 11.1864 20.7354C11.3022 20.6599 11.4565 20.5843 11.5722 20.5088C11.7265 20.4333 11.8422 20.3956 11.9965 20.3578C12.1508 20.3201 12.3051 20.2823 12.4594 20.2823C12.5365 20.2823 12.6137 20.2823 12.6908 20.2823C12.7294 20.2823 12.7294 20.2823 12.7294 20.2823H12.8065H12.8451H12.9223C13.0766 20.2823 13.2694 20.3201 13.4237 20.3578C13.7709 20.4333 14.0795 20.5466 14.3881 20.6976C15.0053 21.0374 15.5067 21.5283 15.8153 22.1701C15.9696 22.4722 16.0853 22.812 16.1239 23.1518C16.1239 23.2273 16.1625 23.3406 16.1625 23.4161V23.4916V23.5671C16.1625 23.6049 16.1625 23.6049 16.1625 23.6426C16.1625 23.6804 16.1625 23.6804 16.1625 23.7181V23.7936V23.8692C16.1625 23.9069 16.1625 23.9824 16.1625 24.0202C16.1625 24.1334 16.1625 24.209 16.1239 24.3222C16.1239 24.3977 16.0853 24.511 16.0853 24.5865C16.0853 24.662 16.0468 24.7753 16.0082 24.8508C15.9696 25.0396 15.8925 25.2284 15.8153 25.3794C15.661 25.7192 15.4681 26.059 15.2367 26.3611C14.7738 26.9652 14.1566 27.4938 13.4237 27.7958C13.0766 27.9468 12.6908 28.0601 12.3051 28.1356C12.1122 28.1734 11.9193 28.1734 11.7265 28.2111H11.6879H11.6493H11.5722H11.5336C11.4179 28.2111 11.3407 28.2111 11.225 28.2111C10.8007 28.1734 10.3764 28.0979 9.99065 27.9846C9.60491 27.8713 9.21917 27.7203 8.83343 27.5315C8.10052 27.154 7.44477 26.6254 6.94331 25.9835C6.67329 25.6815 6.44185 25.3416 6.28755 24.9641C6.09468 24.6243 5.94038 24.2467 5.86324 23.8314C5.74752 23.4538 5.67037 23.0385 5.67037 22.6609V22.5854V22.3589V22.2834V22.2456V22.2079V22.1324V22.0946C5.67037 22.0568 5.67037 21.9813 5.67037 21.9436C5.67037 21.7548 5.70894 21.566 5.70894 21.3395C5.74752 21.1507 5.78609 20.9242 5.82466 20.7354C5.86324 20.5466 5.90181 20.3201 5.97896 20.1313C6.09468 19.7537 6.24898 19.3761 6.40327 18.9986C6.75044 18.2812 7.17475 17.6393 7.71479 17.1485C7.83051 17.0352 7.9848 16.8842 8.1391 16.771C8.2934 16.6577 8.44769 16.5444 8.60199 16.4689C8.75628 16.3556 8.91058 16.2801 9.06487 16.2046C9.14202 16.1668 9.21917 16.1291 9.29632 16.0913C9.33489 16.0913 9.37346 16.0536 9.41204 16.0536C9.45061 16.0536 9.48919 16.0158 9.52776 16.0158C9.68206 15.9403 9.87493 15.9026 10.0292 15.827C10.0678 15.827 10.1064 15.7893 10.1449 15.7893C10.1835 15.7893 10.2221 15.7515 10.2607 15.7515C10.3378 15.7138 10.4535 15.7138 10.5307 15.676C10.5693 15.676 10.6078 15.6383 10.6464 15.6383C10.685 15.6383 10.7236 15.6383 10.7621 15.6005C10.8007 15.6005 10.8393 15.6005 10.9164 15.5627H10.9936H11.0707C11.1093 15.5627 11.1479 15.5627 11.225 15.525C11.2636 15.525 11.3407 15.525 11.3793 15.4872C11.4179 15.4872 11.495 15.4872 11.5336 15.4872C11.5722 15.4872 11.6108 15.4872 11.6493 15.4872H11.7265H11.765H11.8036C11.8422 15.4872 11.9193 15.4872 11.9579 15.4872H12.0351H12.0736C12.1122 15.4872 12.1508 15.4872 12.1894 15.4872C12.3822 15.4872 12.5365 15.4872 12.7294 15.4872C13.0766 15.4872 13.4237 15.525 13.7323 15.6005C14.3881 15.7138 15.0053 15.9403 15.5839 16.2046C16.1625 16.4689 16.6639 16.8087 17.0883 17.1485C17.1268 17.1863 17.1268 17.1863 17.1654 17.224C17.204 17.2618 17.204 17.2618 17.2425 17.2995C17.2811 17.3373 17.3583 17.3751 17.3968 17.4506C17.4354 17.4883 17.5126 17.5261 17.5511 17.6016C17.5897 17.6393 17.6669 17.7149 17.7054 17.7526C17.8983 17.9414 18.0526 18.1302 18.2069 18.319C18.5155 18.6965 18.7855 19.1118 18.9784 19.4894C18.9784 19.5272 19.0169 19.5272 19.0169 19.5649C19.0169 19.6027 19.0555 19.6027 19.0555 19.6404C19.0941 19.6782 19.0941 19.7159 19.1327 19.7915C19.1712 19.8292 19.1712 19.867 19.2098 19.9425C19.2484 19.9802 19.2484 20.018 19.287 20.0558C19.3641 20.2445 19.4413 20.3956 19.4798 20.5466C19.557 20.8109 19.6341 21.0374 19.6727 21.2262C19.7113 21.3017 19.7884 21.3395 19.8656 21.3395C19.9427 21.3395 20.0199 21.264 20.0199 21.1884C19.9041 20.8864 19.8656 20.6599 19.8656 20.3578Z" fill="url(#paint4_linear_12_1215)"/>
</g>
<defs>
<linearGradient id="paint0_linear_12_1215" x1="100.53" y1="35.0842" x2="100.53" y2="15.9659" gradientUnits="userSpaceOnUse">
<stop stop-color="#FFF100"/>
<stop offset="1" stop-color="#F05A28"/>
</linearGradient>
<linearGradient id="paint1_linear_12_1215" x1="109.161" y1="35.0842" x2="109.161" y2="15.9659" gradientUnits="userSpaceOnUse">
<stop stop-color="#FFF100"/>
<stop offset="1" stop-color="#F05A28"/>
</linearGradient>
<linearGradient id="paint2_linear_12_1215" x1="120.35" y1="35.0842" x2="120.35" y2="15.966" gradientUnits="userSpaceOnUse">
<stop stop-color="#FFF100"/>
<stop offset="1" stop-color="#F05A28"/>
</linearGradient>
<linearGradient id="paint3_linear_12_1215" x1="128.848" y1="35.0842" x2="128.848" y2="15.966" gradientUnits="userSpaceOnUse">
<stop stop-color="#FFF100"/>
<stop offset="1" stop-color="#F05A28"/>
</linearGradient>
<linearGradient id="paint4_linear_12_1215" x1="9.95003" y1="36.9261" x2="9.95003" y2="17.6125" gradientUnits="userSpaceOnUse">
<stop stop-color="#FFF100"/>
<stop offset="1" stop-color="#F05A28"/>
</linearGradient>
<clipPath id="clip0_12_1215">
<rect width="132" height="21.1436" fill="white" transform="translate(0 11.032)"/>
</clipPath>
</defs>
</svg>
