<svg width="165" height="50" viewBox="0 0 165 50" fill="none" xmlns="http://www.w3.org/2000/svg">
<path d="M45.7911 24.3934V7.65869H52.6876C54.3032 7.65869 55.6611 7.94115 56.7651 8.5022C57.8692 9.06712 58.7082 9.9648 59.286 11.203C59.8638 12.4411 60.1508 14.0817 60.1508 16.1286C60.1508 19.0035 59.5215 21.1006 58.2593 22.4162C57.0007 23.7318 55.1422 24.3895 52.6876 24.3895H45.7911V24.3934ZM49.773 21.1703H52.1466C53.0041 21.1703 53.7254 21.0349 54.3105 20.7679C54.8957 20.5009 55.3409 20.0018 55.6464 19.2743C55.9518 18.5469 56.1027 17.4983 56.1027 16.1286C56.1027 14.7434 55.9666 13.6716 55.6942 12.9209C55.4219 12.1664 54.995 11.6402 54.4099 11.3345C53.8248 11.0327 53.0703 10.878 52.1503 10.878H49.7767V21.1703H49.773Z" fill="white"/>
<path d="M68.2838 24.6527C66.0279 24.6527 64.3609 24.1033 63.29 23.0044C62.2191 21.9055 61.6818 20.3152 61.6818 18.2374C61.6818 16.1751 62.2191 14.5925 63.301 13.482C64.3793 12.3754 66.039 11.8182 68.2801 11.8182C70.536 11.8182 72.2068 12.3715 73.2851 13.482C74.3633 14.5925 74.9043 16.1751 74.9043 18.2374C74.9043 20.3152 74.367 21.9055 73.2961 23.0044C72.2289 24.1033 70.5581 24.6527 68.2838 24.6527ZM68.2838 21.3793C69.2075 21.3793 69.8663 21.1355 70.26 20.6519C70.6538 20.1682 70.8525 19.3634 70.8525 18.2335C70.8525 17.1076 70.6538 16.3028 70.26 15.8152C69.8663 15.3316 69.2038 15.0878 68.2838 15.0878C67.3785 15.0878 66.7272 15.3316 66.3297 15.8152C65.9323 16.2989 65.7372 17.1076 65.7372 18.2335C65.7372 19.3595 65.9359 20.1643 66.3297 20.6519C66.7272 21.1355 67.3785 21.3793 68.2838 21.3793Z" fill="white"/>
<path d="M81.1604 24.6526C80.222 24.6526 79.3314 24.583 78.4924 24.4437C77.6533 24.3044 76.9835 24.1303 76.4904 23.9252V20.7292C77.0682 20.9884 77.7343 21.1896 78.4924 21.325C79.2505 21.4643 79.9239 21.534 80.5201 21.534C81.2267 21.534 81.7456 21.4992 82.0657 21.4295C82.3859 21.3599 82.5478 21.1703 82.5478 20.8568C82.5478 20.5086 82.2829 20.2494 81.7566 20.0753C81.2304 19.9011 80.5054 19.6496 79.5817 19.3207C78.5108 18.9222 77.6975 18.4579 77.1455 17.9317C76.5934 17.4016 76.3174 16.62 76.3174 15.5791C76.3174 14.368 76.748 13.4355 77.6165 12.7855C78.4813 12.1354 79.8614 11.8104 81.7566 11.8104C82.4963 11.8104 83.2323 11.8723 83.9573 11.9923C84.6823 12.1122 85.2748 12.2515 85.7385 12.4063V15.552C85.2784 15.3276 84.7485 15.1612 84.156 15.0568C83.5635 14.9523 83.0262 14.902 82.5478 14.902C81.9369 14.902 81.4217 14.9407 81.0022 15.0181C80.5827 15.0955 80.3729 15.2812 80.3729 15.5753C80.3729 15.9041 80.6047 16.1324 81.0647 16.264C81.5248 16.3955 82.1945 16.6045 83.0667 16.9024C83.9904 17.1965 84.708 17.5138 85.2159 17.8504C85.7274 18.187 86.0881 18.5894 86.3052 19.0576C86.5223 19.5258 86.6254 20.1139 86.6254 20.8259C86.6254 22.0563 86.1653 23.0004 85.2416 23.6582C84.3179 24.3237 82.9563 24.6526 81.1604 24.6526Z" fill="white"/>
<path d="M94.5559 24.6527C92.5135 24.6527 90.8722 24.1187 89.6356 23.0546C88.3991 21.9906 87.7809 20.381 87.7809 18.2335C87.7809 16.2756 88.2924 14.7163 89.3118 13.5555C90.3349 12.3947 91.8658 11.8143 93.9082 11.8143C95.7703 11.8143 97.2129 12.3173 98.2323 13.3234C99.2554 14.3294 99.7632 15.6798 99.7632 17.3784V19.5878H91.4573C91.6376 20.4003 92.0645 20.9691 92.7306 21.2902C93.3967 21.6114 94.3094 21.77 95.4612 21.77C96.1052 21.77 96.7603 21.7081 97.4264 21.5882C98.0925 21.4682 98.6482 21.3096 99.0935 21.12V23.8479C98.5341 24.1264 97.8643 24.3276 97.0915 24.4592C96.3297 24.5869 95.4796 24.6527 94.5559 24.6527ZM91.4683 17.1694H96.3113V16.6239C96.3113 16.0164 96.1384 15.5366 95.7924 15.1806C95.4465 14.8247 94.8614 14.6467 94.037 14.6467C93.0802 14.6467 92.4141 14.8517 92.0351 15.258C91.656 15.6643 91.4683 16.3027 91.4683 17.1694Z" fill="white"/>
<path d="M112.033 24.6526C110.895 24.6526 109.924 24.463 109.118 24.08C108.312 23.7008 107.694 23.0701 107.263 22.1956C106.833 21.3211 106.619 20.1487 106.619 18.6745C106.619 17.1849 106.866 15.9312 107.359 14.9174C107.852 13.9037 108.533 13.1337 109.398 12.6036C110.262 12.0735 111.256 11.8104 112.375 11.8104C112.986 11.8104 113.534 11.88 114.02 12.0193C114.506 12.1586 114.962 12.3676 115.393 12.6423V6.87317H119.371V24.3895H115.933L115.713 23.3487C115.234 23.782 114.701 24.107 114.104 24.3237C113.516 24.5443 112.824 24.6526 112.033 24.6526ZM113.17 21.6113C114.042 21.6113 114.785 21.2979 115.393 20.675V15.6836C114.833 15.1457 114.116 14.8788 113.243 14.8788C112.404 14.8788 111.764 15.2115 111.326 15.8809C110.888 16.5464 110.671 17.4867 110.671 18.7016C110.671 19.8818 110.881 20.6595 111.3 21.0387C111.723 21.4217 112.345 21.6113 113.17 21.6113Z" fill="white"/>
<path d="M127.923 24.6527C125.881 24.6527 124.239 24.1187 123.003 23.0546C121.766 21.9906 121.148 20.381 121.148 18.2335C121.148 16.2756 121.66 14.7163 122.679 13.5555C123.702 12.3947 125.233 11.8143 127.275 11.8143C129.138 11.8143 130.58 12.3173 131.6 13.3234C132.623 14.3294 133.131 15.6798 133.131 17.3784V19.5878H124.825C125.005 20.4003 125.432 20.9691 126.098 21.2902C126.764 21.6114 127.677 21.77 128.828 21.77C129.473 21.77 130.128 21.7081 130.794 21.5882C131.46 21.4682 132.015 21.3096 132.461 21.12V23.8479C131.901 24.1264 131.232 24.3276 130.459 24.4592C129.686 24.5908 128.847 24.6527 127.923 24.6527ZM124.836 17.1694H129.679V16.6239C129.679 16.0164 129.506 15.5366 129.16 15.1806C128.814 14.8247 128.229 14.6467 127.404 14.6467C126.447 14.6467 125.781 14.8517 125.402 15.258C125.023 15.6643 124.836 16.3027 124.836 17.1694Z" fill="white"/>
<path d="M49.475 47.5744V34.0628H44.8049V30.8397H58.1268V34.0628H53.4568V47.5744H49.475Z" fill="white"/>
<path d="M64.0848 47.8337C62.0424 47.8337 60.4011 47.2997 59.1646 46.2357C57.9281 45.1716 57.3098 43.562 57.3098 41.4145C57.3098 39.4567 57.8213 37.8973 58.8407 36.7365C59.8638 35.5758 61.3947 34.9954 63.4372 34.9954C65.2993 34.9954 66.7419 35.4984 67.7612 36.5044C68.7843 37.5104 69.2922 38.8608 69.2922 40.5594V42.7688H60.9862C61.1665 43.5813 61.5934 44.1501 62.2595 44.4713C62.9256 44.7924 63.8383 44.9511 64.9901 44.9511C65.6342 44.9511 66.2892 44.8892 66.9553 44.7692C67.6214 44.6493 68.1771 44.4906 68.6224 44.301V47.0289C68.063 47.3075 67.3932 47.5087 66.6204 47.6402C65.8476 47.7718 65.0049 47.8337 64.0848 47.8337ZM60.9936 40.3505H65.8366V39.8049C65.8366 39.1974 65.6636 38.7176 65.3177 38.3616C64.9717 38.0057 64.3866 37.8277 63.5623 37.8277C62.6055 37.8277 61.9394 38.0328 61.5603 38.439C61.1849 38.8492 60.9936 39.4837 60.9936 40.3505Z" fill="white"/>
<path d="M74.9338 47.8337C73.6494 47.8337 72.7257 47.5396 72.1663 46.9515C71.607 46.3634 71.3273 45.4193 71.3273 44.1192V30.062H75.3054V43.7052C75.3054 44.1037 75.3827 44.3784 75.541 44.5255C75.6955 44.6725 75.9311 44.746 76.2439 44.746C76.6892 44.746 77.0829 44.6841 77.4288 44.5642V47.3965C77.0498 47.5512 76.6744 47.6635 76.3027 47.7331C75.9347 47.7989 75.4784 47.8337 74.9338 47.8337Z" fill="white"/>
<path d="M85.2159 47.8337C83.1734 47.8337 81.5321 47.2997 80.2956 46.2357C79.0591 45.1716 78.4409 43.562 78.4409 41.4145C78.4409 39.4567 78.9524 37.8973 79.9718 36.7365C80.9948 35.5758 82.5257 34.9954 84.5682 34.9954C86.4303 34.9954 87.8729 35.4984 88.8923 36.5044C89.9153 37.5104 90.4232 38.8608 90.4232 40.5594V42.7688H82.1173C82.2976 43.5813 82.7208 44.1501 83.3906 44.4713C84.0567 44.7924 84.9693 44.9511 86.1212 44.9511C86.7652 44.9511 87.4202 44.8892 88.0863 44.7692C88.7524 44.6493 89.3118 44.4906 89.7534 44.301V47.0289C89.194 47.3075 88.5243 47.5087 87.7515 47.6402C86.986 47.7718 86.1396 47.8337 85.2159 47.8337ZM82.1246 40.3505H86.9676V39.8049C86.9676 39.1974 86.7946 38.7176 86.4487 38.3616C86.1028 38.0057 85.5176 37.8277 84.6933 37.8277C83.7365 37.8277 83.0704 38.0328 82.6913 38.439C82.316 38.8492 82.1246 39.4837 82.1246 40.3505Z" fill="white"/>
<path d="M92.4583 47.5744V35.2584H96.142L96.2671 36.3495C96.7934 35.951 97.3859 35.626 98.0483 35.3745C98.707 35.123 99.4173 34.9991 100.175 34.9991C100.967 34.9991 101.585 35.1268 102.03 35.3745C102.475 35.626 102.821 35.9781 103.068 36.4269C103.613 36.0129 104.227 35.6685 104.908 35.4015C105.592 35.1346 106.395 34.9991 107.318 34.9991C108.687 34.9991 109.692 35.3706 110.332 36.1174C110.976 36.8641 111.297 37.9978 111.297 39.5223V47.5782H107.366V40.0176C107.366 39.3405 107.23 38.853 106.958 38.5512C106.685 38.2494 106.244 38.0946 105.637 38.0946C105.258 38.0946 104.886 38.1758 104.525 38.3422C104.165 38.5086 103.859 38.7369 103.613 39.031C103.646 39.2205 103.664 39.4024 103.675 39.5765C103.682 39.7506 103.686 39.9596 103.686 40.1995V47.5782H99.9803V39.9635C99.9803 39.3405 99.8773 38.8723 99.6712 38.5589C99.4651 38.2455 99.075 38.0907 98.4973 38.0907C98.0851 38.0907 97.6987 38.2029 97.3344 38.4273C96.97 38.6518 96.6425 38.911 96.3444 39.2089V47.5782H92.4583V47.5744Z" fill="white"/>
<path d="M119.816 47.8337C117.774 47.8337 116.132 47.2997 114.896 46.2357C113.659 45.1716 113.041 43.562 113.041 41.4145C113.041 39.4567 113.552 37.8973 114.572 36.7365C115.595 35.5758 117.126 34.9954 119.168 34.9954C121.03 34.9954 122.473 35.4984 123.492 36.5044C124.515 37.5104 125.023 38.8608 125.023 40.5594V42.7688H116.717C116.898 43.5813 117.325 44.1501 117.991 44.4713C118.657 44.7924 119.569 44.9511 120.721 44.9511C121.365 44.9511 122.02 44.8892 122.686 44.7692C123.353 44.6493 123.912 44.4906 124.354 44.301V47.0289C123.794 47.3075 123.124 47.5087 122.352 47.6402C121.579 47.7718 120.74 47.8337 119.816 47.8337ZM116.728 40.3505H121.571V39.8049C121.571 39.1974 121.398 38.7176 121.052 38.3616C120.707 38.0057 120.121 37.8277 119.297 37.8277C118.34 37.8277 117.674 38.0328 117.295 38.439C116.916 38.8492 116.728 39.4837 116.728 40.3505Z" fill="white"/>
<path d="M131.879 47.8336C130.429 47.8336 129.362 47.4428 128.678 46.665C127.993 45.8834 127.651 44.8116 127.651 43.4419V38.4273H126.068V35.2583H127.651V32.6853L131.629 31.567V35.2583H134.47L134.297 38.4273H131.629V43.1556C131.629 43.7437 131.769 44.1577 132.049 44.3899C132.328 44.622 132.748 44.742 133.307 44.742C133.786 44.742 134.271 44.6569 134.764 44.4827V47.3151C133.995 47.6633 133.031 47.8336 131.879 47.8336Z" fill="white"/>
<path d="M136.303 47.5744V35.2584H140.086L140.207 36.4037C140.719 36.0748 141.352 35.7769 142.11 35.506C142.868 35.239 143.626 35.0688 144.384 34.9991V38.1449C143.954 38.1952 143.483 38.2803 142.964 38.3925C142.445 38.5047 141.952 38.6402 141.481 38.7949C141.01 38.9497 140.612 39.1161 140.281 39.2902V47.5782H136.303V47.5744Z" fill="white"/>
<path d="M147.004 47.5745V38.35H145.275L145.621 35.2585H150.983V47.5745H147.004ZM146.684 33.3083V30.1626H151.008V33.3083H146.684Z" fill="white"/>
<path d="M157.187 47.8337C156.448 47.8337 155.759 47.6944 155.123 47.4196C154.49 47.141 153.982 46.7154 153.603 46.135C153.224 45.5546 153.036 44.8311 153.036 43.9644C153.036 42.6991 153.445 41.7086 154.262 40.9889C155.079 40.2692 156.3 39.9093 157.931 39.9093H161.195V39.623C161.195 39 160.996 38.5551 160.602 38.2842C160.209 38.0172 159.465 37.8818 158.38 37.8818C157.044 37.8818 155.734 38.0985 154.449 38.5319V35.8311C155.027 35.5873 155.73 35.39 156.562 35.2352C157.393 35.0804 158.273 35.0031 159.193 35.0031C161.003 35.0031 162.428 35.3939 163.454 36.1716C164.485 36.9493 165 38.1914 165 39.8861V47.5783H161.515L161.316 46.5374C160.886 46.9515 160.341 47.2726 159.671 47.497C159.005 47.7214 158.177 47.8337 157.187 47.8337ZM158.449 45.2606C159.075 45.2606 159.62 45.1484 160.08 44.9239C160.54 44.6995 160.911 44.4132 161.191 44.065V42.3238H158.372C157.202 42.3238 156.617 42.819 156.617 43.8057C156.617 44.2546 156.764 44.6105 157.062 44.8698C157.36 45.1329 157.82 45.2606 158.449 45.2606Z" fill="white"/>
<path d="M13.7193 22.3582C13.2077 21.9442 12.8066 22.1995 12.3576 22.6639C11.3235 23.7473 10.26 24.8036 9.15596 25.8096C8.70699 26.2197 8.6665 26.537 8.86523 27.1058C9.54972 29.0791 8.68123 31.0796 6.88167 31.8225C5.11155 32.5538 2.99182 31.5516 2.21532 29.6208C1.45723 27.7326 2.17852 25.5736 3.86768 24.7146C4.83186 24.2232 5.82916 24.2 6.78598 24.6836C7.22023 24.9042 7.47416 24.8423 7.79801 24.5172C8.97195 23.3371 10.1606 22.1763 11.3566 21.0194C11.629 20.7524 11.6989 20.5087 11.548 20.1256C11.1358 19.0577 11.1616 17.9859 11.6805 16.9605C11.8351 16.6548 11.7835 16.4614 11.5774 16.2408C10.5029 15.0994 9.42828 13.9618 8.36842 12.8087C8.13289 12.5534 7.90105 12.4605 7.5956 12.6346C7.56616 12.6501 7.53304 12.6578 7.5036 12.6656C5.33971 13.3234 3.60271 12.5572 3.22735 10.789C2.85934 9.03618 4.51906 7.0164 6.5615 6.74168C6.65718 6.73007 6.76758 6.69911 6.85222 6.73394C8.54874 7.37624 9.63437 6.17289 10.8304 5.29843C11.0954 5.10496 11.3677 4.9115 11.651 4.74512C12.3061 4.35819 12.9391 4.04477 12.3576 3.01554C12.0632 2.49318 12.4827 1.98631 12.9428 1.64581C14.3154 0.628182 17.1712 1.01511 18.2678 2.36937C18.875 3.12001 18.6947 4.0796 17.8225 4.61743C16.8032 5.24426 15.6918 5.2017 14.6025 4.94245C14.1093 4.82638 13.7377 4.86507 13.3402 5.17074C12.3171 5.95621 11.2794 6.71846 10.2342 7.47684C9.82205 7.77478 9.60493 8.05337 9.83309 8.64151C10.087 9.29155 10.0171 10.0228 9.66381 10.6187C9.33996 11.1604 9.4982 11.4506 9.88093 11.8259C10.801 12.7391 11.7099 13.6716 12.5674 14.6467C12.9906 15.1303 13.3439 15.2387 13.9732 15.0413C15.4783 14.5693 16.8068 15.0413 17.8409 16.2795C18.8309 17.4596 19.0922 18.8526 18.496 20.2881C17.8925 21.7468 16.7627 22.5439 15.2207 22.6406C14.7129 22.6677 14.2529 22.5168 13.7193 22.3582Z" fill="#F7BD06"/>
<path d="M19.3939 30.9326C19.0958 31.8225 18.3782 32.697 17.2595 33.0994C16.4535 33.3896 16.8142 34.0473 16.7332 34.5581C16.6817 34.887 16.6007 35.1888 17.0571 35.4248C18.6653 36.2606 19.2946 37.4755 18.9597 38.8956C18.6432 40.2382 17.1344 41.3951 15.6476 41.4377C14.0468 41.4841 12.6336 40.4742 12.3024 39.0465C11.9675 37.6032 12.7035 36.1135 14.2786 35.5099C15.1398 35.1772 14.9116 34.5504 15.0257 33.9584C15.1508 33.3083 14.7423 33.1264 14.3154 32.8904C12.6079 31.954 12.0006 29.9614 12.8176 28.0461C13.5757 26.2739 15.563 25.4227 17.3552 26.0959C19.037 26.7382 20.0011 28.7967 19.3939 30.9326Z" fill="#F7BD06"/>
<path d="M22.8533 17.3009C23.4678 15.169 25.3741 14.1861 27.3687 15.0374C27.814 15.227 28.0458 15.1651 28.3182 14.813C28.5979 14.4531 28.8959 14.1126 29.2124 13.7876C30.0662 12.9054 30.3533 12.1083 30.1803 10.6303C29.8859 8.11135 28.0569 7.16337 26.7799 5.62339C26.5444 5.34093 26.2132 5.45701 25.9188 5.41058C24.4725 5.18616 23.1329 4.71797 22.1724 3.46432C21.7529 2.91875 21.3407 2.27258 21.7603 1.62254C22.1467 1.02666 22.8165 1.31686 23.3648 1.50646C24.7043 1.9669 26.2132 2.4583 26.8425 3.76613C27.6778 5.49957 29.1609 6.50172 30.2502 7.92176C30.4195 8.14231 30.5851 8.37446 30.8906 8.40929C33.1428 8.65692 33.6764 10.6341 34.405 12.3598C34.6479 12.9402 34.5449 13.6831 33.9855 14.1204C33.4077 14.5692 32.7821 14.31 32.2779 13.9346C31.7664 13.5555 31.4426 13.6174 31.104 14.132C30.9126 14.4261 30.6881 14.7008 30.4416 14.9445C29.5252 15.8422 29.1204 16.6857 29.7092 18.129C30.4195 19.8663 29.4296 21.9441 27.9391 22.6677C26.3825 23.426 24.4431 22.7567 23.4089 21.0851C22.695 19.9166 22.4779 18.6552 22.8533 17.3009Z" fill="#F7BD06"/>
<path d="M13.4102 49.8069C12.6374 49.5593 12.0706 49.2652 11.6032 48.7738C10.812 47.9419 9.84785 47.8684 8.90207 48.5572C7.28651 49.7296 3.69476 48.5417 2.97346 46.5993C2.62753 45.6629 3.08754 44.8736 4.15477 44.4789C4.47125 44.3628 5.11527 44.5524 4.99751 43.914C4.87238 43.2175 5.29191 42.3082 4.32037 41.871C3.52179 41.5112 2.90722 40.8843 2.46193 40.0834C1.17758 37.7695 2.45457 35.3319 5.00855 35.239C6.76394 35.1733 8.51934 36.3727 9.13391 38.0597C9.78161 39.8319 9.08239 41.4763 7.41164 42.1651C7.09147 42.2966 6.51002 42.2076 6.64986 42.8499C6.79706 43.5116 6.31129 44.3667 7.24603 44.8039C8.06669 45.187 8.73646 45.7713 9.25904 46.5799C9.67857 47.23 10.9703 47.1952 11.4671 46.6148C12.8287 45.0284 15.9273 44.9084 17.4031 46.3903C18.3746 47.3654 18.2973 48.5494 17.1602 49.2885C15.9457 50.0778 14.6209 50.1668 13.4102 49.8069Z" fill="#F7BD06"/>
<path d="M32.5797 39.917C32.0829 40.3117 31.6155 40.7412 31.012 40.9888C30.0883 41.3719 29.5289 41.1629 29.1793 40.1995C28.8591 39.3173 27.8692 39.147 27.3356 39.9634C26.732 40.8882 26.0144 41.6118 25.0502 42.0838C24.5019 42.3508 24.5755 42.9699 24.4651 43.4535C24.34 43.9991 24.8662 43.8366 25.1128 43.9604C25.9555 44.3783 26.1248 45.0903 25.6979 46.0073C25.2048 47.0713 22.1687 48.7235 20.7997 48.294C19.9092 48.0154 19.5743 47.4583 19.8944 46.5219C20.2588 45.4578 21.0647 44.8078 21.9994 44.417C22.7023 44.1229 22.971 43.6857 23.0409 42.935C23.1145 42.1496 22.4668 42.2811 22.1356 42.0645C21.1089 41.3912 20.6783 40.3001 21.0021 38.9613C21.4732 37.0266 23.2617 35.5369 25.1606 35.5447C26.2352 35.5486 27.0816 35.9974 27.5895 37.0615C27.7514 37.3981 27.6042 38.0443 28.3218 37.9243C28.918 37.8237 29.481 37.8392 29.827 37.1118C30.3348 36.0516 31.1334 35.2351 32.2448 34.8753C33.496 34.469 34.2725 35.1075 34.221 36.4927C34.1879 37.4136 33.8861 38.2455 33.312 38.9613C32.5907 38.9961 32.8336 38.4621 32.8446 38.0752C32.852 37.6689 33.2384 37.2627 32.8373 36.8641C31.8216 36.7751 30.7065 37.8779 30.7985 38.8762C30.839 39.3018 31.034 39.4798 31.4425 39.3714C31.8142 39.2747 32.1344 38.9652 32.5576 39.0696C32.9587 39.3405 32.8446 39.6268 32.5797 39.917Z" fill="#F7BD06"/>
<path d="M17.933 6.31209C18.599 6.59455 19.2762 7.055 19.7436 7.81338C20.3544 8.80006 21.3775 8.81166 22.0767 7.88303C22.6655 7.09756 23.4862 6.91184 24.3768 7.11691C25.5728 7.3955 26.4523 8.15388 27.0411 9.26824C27.5932 10.3168 27.5527 11.4312 26.916 12.1354C26.1727 12.9596 25.2269 12.9673 24.2885 12.65C23.3353 12.325 22.5883 11.6788 22.0841 10.7463C21.4953 9.65904 20.3544 9.60874 19.7436 10.638C19.1069 11.7136 17.6901 12.2515 16.2696 11.9574C14.9042 11.6749 13.8149 10.6264 13.6015 9.39593C13.2261 7.18656 15.5409 5.47245 17.933 6.31209Z" fill="#F7BD06"/>
<path d="M37.0031 21.8706C36.8375 22.3736 36.6682 22.8573 36.2892 23.2365C35.2477 24.2773 35.2477 25.1866 36.2671 26.2352C37.9783 27.9919 37.062 32.4145 34.8098 33.2425C33.8346 33.6024 32.8078 33.0645 32.2963 31.927C31.5088 30.1664 32.1307 27.4695 33.6174 26.2159C34.5632 25.4188 34.5669 23.9794 33.6211 23.163C32.1638 21.9016 31.6044 19.1544 32.4545 17.4171C33.1538 15.9854 34.6589 15.672 35.7188 16.8251C37.0142 18.2296 37.4742 19.936 37.0031 21.8706Z" fill="#F7BD06"/>
<path d="M28.2703 30.1548C27.7183 31.9966 26.1027 33.0219 24.5534 32.5112C23.0409 32.0159 22.2644 30.2593 22.7759 28.5026C23.3022 26.6995 24.9693 25.6509 26.5149 26.1462C28.0164 26.626 28.7929 28.4059 28.2703 30.1548Z" fill="#F7BD06"/>
<path d="M2.63854 22.1647C0.919942 21.5804 -7.83503e-05 19.6573 0.548254 17.7885C1.15547 15.7145 3.19423 14.5267 5.06003 15.1651C6.84855 15.7726 7.78329 17.8001 7.16136 19.7154C6.51366 21.7081 4.50434 22.7992 2.63854 22.1647Z" fill="#F7BD06"/>
<path d="M4.12162 4.45102C2.53918 3.90932 2.2411 2.7524 3.28256 1.75025C4.59635 0.484991 6.17878 0.0168016 7.92314 0.446294C9.38045 0.806139 9.71166 2.0211 8.64812 3.10838C7.31225 4.4665 5.66725 4.72961 4.12162 4.45102Z" fill="#F7BD06"/>
<path d="M32.5797 39.9171C32.6312 39.6269 32.8005 39.3019 32.3773 39.1471C32.3809 38.2262 32.8446 37.402 32.8741 36.4889C33.5917 36.6204 33.3598 37.108 33.2936 37.5916C33.2347 38.0366 32.6533 38.5164 33.312 38.9575C33.1832 39.3754 32.9293 39.6849 32.5797 39.9171Z" fill="#F7BD06"/>
<path d="M30.4452 40.068L32.5796 39.9171L34.2173 36.4889L32.7268 35.7112L29.8049 38.0173L30.4047 39.4296L30.4452 40.068Z" fill="#F7BD06"/>
</svg>
