<svg width="132" height="48" viewBox="0 0 132 48" fill="none" xmlns="http://www.w3.org/2000/svg">
<g clip-path="url(#clip0_12_1232)">
<path d="M27.4011 24.7197C30.1196 24.7197 34.0033 24.1598 34.0033 20.9729C34.0033 20.7145 34.0033 20.4992 33.917 20.2407L32.3204 13.2639C31.932 11.7135 31.6299 11.0244 28.9114 9.68934C26.8401 8.61267 22.2661 6.84692 20.9284 6.84692C19.677 6.84692 19.2887 8.48347 17.8215 8.48347C16.3975 8.48347 15.3187 7.27759 13.981 7.27759C12.6865 7.27759 11.8235 8.13893 11.1762 9.94775C11.1762 9.94775 9.36384 15.0727 9.14809 15.8049C9.10494 15.9341 9.10494 16.0633 9.10494 16.2355C9.06179 18.2166 16.9153 24.7197 27.4011 24.7197ZM34.4348 22.2649C34.8231 24.0306 34.8231 24.2029 34.8231 24.4613C34.8231 27.476 31.4142 29.1556 26.9696 29.1556C16.829 29.1556 7.983 23.2124 7.983 19.3363C7.983 18.7765 8.11246 18.2597 8.32821 17.7429C4.7035 17.9582 0 18.5611 0 22.7386C0 29.5001 16.0955 37.8551 28.8251 37.8551C38.5773 37.8551 41.0369 33.4623 41.0369 29.9739C41.0801 27.2176 38.7068 24.1168 34.4348 22.2649Z" fill="#EE0000"/>
<path d="M34.4348 22.2649C34.8231 24.0306 34.8231 24.2029 34.8231 24.4613C34.8231 27.476 31.4142 29.1556 26.9696 29.1556C16.829 29.1556 7.983 23.2123 7.983 19.3363C7.983 18.7764 8.11246 18.2596 8.32821 17.7428L9.10494 15.8048C9.06179 15.934 9.06179 16.0632 9.06179 16.2355C9.06179 18.2166 16.8722 24.7197 27.4011 24.7197C30.1196 24.7197 34.0033 24.1598 34.0033 20.9728C34.0033 20.7144 34.0033 20.4991 33.917 20.2407L34.4348 22.2649Z" fill="#000A07"/>
<path d="M124.966 26.7439C124.966 29.2848 126.52 30.5338 129.325 30.5338C130.188 30.5338 131.051 30.4046 131.871 30.1893V27.2176C131.353 27.3899 130.792 27.476 130.231 27.476C129.066 27.476 128.634 27.1315 128.634 26.0118V21.4467H132V18.3889H128.634V14.5129L124.966 15.2881V18.3889H122.55V21.4467H124.966V26.7439ZM113.531 26.787C113.531 26.0118 114.308 25.6242 115.516 25.6242C116.25 25.6242 116.983 25.7103 117.674 25.8826V27.433C116.983 27.8206 116.163 27.9928 115.387 27.9928C114.265 27.9928 113.531 27.5191 113.531 26.787ZM114.653 30.5769C115.948 30.5769 116.983 30.3185 117.976 29.6294V30.3615H121.601V22.6956C121.601 19.767 119.616 18.1736 116.336 18.1736C114.481 18.1736 112.668 18.6042 110.726 19.4656L112.021 22.1788C113.445 21.5759 114.61 21.2313 115.646 21.2313C117.156 21.2313 117.933 21.8343 117.933 23.0401V23.6431C117.026 23.4277 116.12 23.2985 115.214 23.2985C112.107 23.2985 110.252 24.5905 110.252 26.9162C110.295 28.9834 111.978 30.5769 114.653 30.5769ZM94.7172 30.3615H98.6009V24.1599H105.117V30.3615H109.043V14.5129H105.16V20.6284H98.644V14.5129H94.7604L94.7172 30.3615ZM79.8732 24.3752C79.8732 22.6525 81.254 21.3605 83.0232 21.3605C83.9725 21.3605 84.8787 21.662 85.5692 22.308V26.4855C84.8787 27.1315 83.9725 27.476 83.0232 27.433C81.254 27.433 79.8732 26.0979 79.8732 24.3752ZM85.6123 30.3615H89.237V13.7377L85.5692 14.5129V19.0349C84.6198 18.5181 83.5842 18.2166 82.5054 18.2597C79.0101 18.2597 76.2485 20.9729 76.2485 24.3752C76.2053 27.7344 78.8807 30.4907 82.2465 30.5338C82.2897 30.5338 82.3328 30.5338 82.3759 30.5338C83.541 30.5338 84.663 30.1893 85.6123 29.5002V30.3615ZM68.9559 21.1452C70.121 21.1452 71.0703 21.8773 71.4587 23.0401H66.4531C66.7983 21.8773 67.7045 21.1452 68.9559 21.1452ZM62.7421 24.4183C62.7421 27.9067 65.5901 30.6199 69.2579 30.6199C71.2861 30.6199 72.7532 30.0601 74.2635 28.8111L71.847 26.6578C71.2861 27.2607 70.423 27.5622 69.4305 27.5622C68.136 27.6052 66.9709 26.83 66.4963 25.6672H75.0834V24.7628C75.0834 20.9729 72.5374 18.2166 69.0422 18.2166C65.6332 18.1736 62.8284 20.8868 62.7852 24.2891C62.7421 24.2891 62.7421 24.3321 62.7421 24.4183ZM56.442 17.829C57.7365 17.829 58.4701 18.6473 58.4701 19.6378C58.4701 20.6284 57.7365 21.4467 56.442 21.4467H52.6015V17.8721H56.442V17.829ZM48.6747 30.3615H52.5584V24.5905H55.5358L58.5133 30.3615H62.8715L59.3763 24.0307C61.1886 23.2985 62.3969 21.5328 62.3537 19.5517C62.3537 16.7093 60.1099 14.5129 56.744 14.5129H48.6316V30.3615H48.6747Z" fill="#000A07"/>
</g>
<defs>
<clipPath id="clip0_12_1232">
<rect width="132" height="31.0082" fill="white" transform="translate(0 6.84692)"/>
</clipPath>
</defs>
</svg>
